<mxfile host="app.diagrams.net" modified="2024-07-06T08:46:36.121Z" agent="Mozilla/5.0 (Macintosh; Intel Mac OS X 10_15_7) AppleWebKit/537.36 (KHTML, like Gecko) Chrome/126.0.0.0 Safari/537.36" version="24.6.4" etag="UuenKXWYEbcpYEAysOxo" type="github">
  <diagram name="Page-1" id="Wp2gcJl6GL1RiMmMyFii">
    <mxGraphModel>
      <root>
        <mxCell id="0" />
        <mxCell id="1" parent="0" />
      </root>
    </mxGraphModel>
  </diagram>
</mxfile>
